<svg width="32" height="32" viewBox="0 0 32 32" fill="none" xmlns="http://www.w3.org/2000/svg">
<path d="M31.5 16C31.5 24.5604 24.5604 31.5 16 31.5C7.43959 31.5 0.5 24.5604 0.5 16C0.5 7.43959 7.43959 0.5 16 0.5C24.5604 0.5 31.5 7.43959 31.5 16Z" fill="#4299E1" stroke="#4299E1"/>
<path d="M19.5583 12.7299C19.7257 12.5625 19.7257 12.2946 19.5583 12.1272L18.4467 11.0156C18.2793 10.8482 18.0114 10.8482 17.844 11.0156L12.8753 15.9844C12.7079 16.1518 12.7079 16.4196 12.8753 16.5871L17.844 21.5558C18.0114 21.7232 18.2793 21.7232 18.4467 21.5558L19.5583 20.4442C19.7257 20.2768 19.7257 20.0089 19.5583 19.8415L16.0025 16.2857L19.5583 12.7299Z" fill="white"/>
</svg>
